<mxfile host="app.diagrams.net" modified="2023-04-05T10:17:46.336Z" agent="Mozilla/5.0 (Windows NT 10.0; Win64; x64) AppleWebKit/537.36 (KHTML, like Gecko) Chrome/111.0.0.0 Safari/537.36" etag="PICOpxgcshrKL2Qg0Q0I" version="21.1.4" type="github">
  <diagram name="Page-1" id="t7jyOZ03Npj0vweh9NhF">
    <mxGraphModel dx="830" dy="486" grid="0" gridSize="10" guides="1" tooltips="1" connect="1" arrows="1" fold="1" page="1" pageScale="1" pageWidth="850" pageHeight="1100" math="0" shadow="1">
      <root>
        <mxCell id="0" />
        <mxCell id="1" parent="0" />
        <mxCell id="2" value="" style="ellipse;rounded=0;labelBackgroundColor=none;fillColor=#1ba1e2;strokeColor=#519ed5;fontColor=#ffffff;" parent="1" vertex="1">
          <mxGeometry x="397" y="8" width="14" height="14" as="geometry" />
        </mxCell>
        <mxCell id="3" value="ME REPORT PROJECT" style="rounded=0;absoluteArcSize=1;arcSize=14;whiteSpace=wrap;strokeWidth=2;labelBackgroundColor=none;fillColor=#1ba1e2;strokeColor=#519ed5;fontColor=#ffffff;" parent="1" vertex="1">
          <mxGeometry x="370" y="72" width="70" height="48" as="geometry" />
        </mxCell>
        <mxCell id="4" value="DataAnalysis" style="rounded=0;absoluteArcSize=1;arcSize=14;whiteSpace=wrap;strokeWidth=2;labelBackgroundColor=none;fillColor=#1ba1e2;strokeColor=#519ed5;fontColor=#ffffff;" parent="1" vertex="1">
          <mxGeometry x="72" y="156" width="105" height="34" as="geometry" />
        </mxCell>
        <mxCell id="5" value="DataMining" style="rounded=0;absoluteArcSize=1;arcSize=14;whiteSpace=wrap;strokeWidth=2;labelBackgroundColor=none;fillColor=#1ba1e2;strokeColor=#519ed5;fontColor=#ffffff;" parent="1" vertex="1">
          <mxGeometry x="8" y="240" width="94" height="34" as="geometry" />
        </mxCell>
        <mxCell id="6" value="Reporting" style="rounded=0;absoluteArcSize=1;arcSize=14;whiteSpace=wrap;strokeWidth=2;labelBackgroundColor=none;fillColor=#1ba1e2;strokeColor=#519ed5;fontColor=#ffffff;" parent="1" vertex="1">
          <mxGeometry x="152" y="240" width="84" height="34" as="geometry" />
        </mxCell>
        <mxCell id="7" value="DataWarehousing" style="rounded=0;absoluteArcSize=1;arcSize=14;whiteSpace=wrap;strokeWidth=2;labelBackgroundColor=none;fillColor=#1ba1e2;strokeColor=#519ed5;fontColor=#ffffff;" parent="1" vertex="1">
          <mxGeometry x="335" y="156" width="138" height="34" as="geometry" />
        </mxCell>
        <mxCell id="8" value="ETL" style="rounded=0;absoluteArcSize=1;arcSize=14;whiteSpace=wrap;strokeWidth=2;labelBackgroundColor=none;fillColor=#1ba1e2;strokeColor=#519ed5;fontColor=#ffffff;" parent="1" vertex="1">
          <mxGeometry x="286" y="240" width="42" height="34" as="geometry" />
        </mxCell>
        <mxCell id="9" value="OLAP" style="rounded=0;absoluteArcSize=1;arcSize=14;whiteSpace=wrap;strokeWidth=2;labelBackgroundColor=none;fillColor=#1ba1e2;strokeColor=#519ed5;fontColor=#ffffff;" parent="1" vertex="1">
          <mxGeometry x="378" y="240" width="52" height="34" as="geometry" />
        </mxCell>
        <mxCell id="10" value="DataQuality" style="rounded=0;absoluteArcSize=1;arcSize=14;whiteSpace=wrap;strokeWidth=2;labelBackgroundColor=none;fillColor=#1ba1e2;strokeColor=#519ed5;fontColor=#ffffff;" parent="1" vertex="1">
          <mxGeometry x="480" y="240" width="101" height="34" as="geometry" />
        </mxCell>
        <mxCell id="11" value="Dashboarding" style="rounded=0;absoluteArcSize=1;arcSize=14;whiteSpace=wrap;strokeWidth=2;labelBackgroundColor=none;fillColor=#1ba1e2;strokeColor=#519ed5;fontColor=#ffffff;" parent="1" vertex="1">
          <mxGeometry x="655" y="156" width="111" height="34" as="geometry" />
        </mxCell>
        <mxCell id="12" value="KPI" style="rounded=0;absoluteArcSize=1;arcSize=14;whiteSpace=wrap;strokeWidth=2;labelBackgroundColor=none;fillColor=#1ba1e2;strokeColor=#519ed5;fontColor=#ffffff;" parent="1" vertex="1">
          <mxGeometry x="631" y="240" width="38" height="34" as="geometry" />
        </mxCell>
        <mxCell id="13" value="Visualization" style="rounded=0;absoluteArcSize=1;arcSize=14;whiteSpace=wrap;strokeWidth=2;labelBackgroundColor=none;fillColor=#1ba1e2;strokeColor=#519ed5;fontColor=#ffffff;" parent="1" vertex="1">
          <mxGeometry x="718" y="240" width="107" height="34" as="geometry" />
        </mxCell>
        <mxCell id="14" value="" style="ellipse;shape=endState;rounded=0;labelBackgroundColor=none;fillColor=#1ba1e2;strokeColor=#519ed5;fontColor=#ffffff;" parent="1" vertex="1">
          <mxGeometry x="703" y="324" width="14" height="14" as="geometry" />
        </mxCell>
        <mxCell id="15" value="" style="curved=1;startArrow=none;;exitX=0.48465401785714285;exitY=1;entryX=0.4753502155172414;entryY=0;rounded=0;labelBackgroundColor=none;fontColor=default;fillColor=#1ba1e2;strokeColor=#519ed5;" parent="1" source="2" target="3" edge="1">
          <mxGeometry relative="1" as="geometry">
            <Array as="points" />
          </mxGeometry>
        </mxCell>
        <mxCell id="16" value="" style="curved=1;startArrow=none;;exitX=-0.016298491379310345;exitY=0.563046360666309;entryX=0.4992931547619048;entryY=0;rounded=0;labelBackgroundColor=none;fontColor=default;fillColor=#1ba1e2;strokeColor=#519ed5;" parent="1" source="3" target="4" edge="1">
          <mxGeometry relative="1" as="geometry">
            <Array as="points">
              <mxPoint x="124" y="131" />
            </Array>
          </mxGeometry>
        </mxCell>
        <mxCell id="17" value="" style="curved=1;startArrow=none;;exitX=0.2316051941609977;exitY=1;entryX=0.4998337765957447;entryY=0;rounded=0;labelBackgroundColor=none;fontColor=default;fillColor=#1ba1e2;strokeColor=#519ed5;" parent="1" source="4" target="5" edge="1">
          <mxGeometry relative="1" as="geometry">
            <Array as="points">
              <mxPoint x="55" y="215" />
            </Array>
          </mxGeometry>
        </mxCell>
        <mxCell id="18" value="" style="curved=1;startArrow=none;;exitX=0.7669811153628118;exitY=1;entryX=0.49841889880952384;entryY=0;rounded=0;labelBackgroundColor=none;fontColor=default;fillColor=#1ba1e2;strokeColor=#519ed5;" parent="1" source="4" target="6" edge="1">
          <mxGeometry relative="1" as="geometry">
            <Array as="points">
              <mxPoint x="194" y="215" />
            </Array>
          </mxGeometry>
        </mxCell>
        <mxCell id="19" value="" style="curved=1;startArrow=none;;exitX=0.4753502155172414;exitY=1;entryX=0.49844316123188404;entryY=0;rounded=0;labelBackgroundColor=none;fontColor=default;fillColor=#1ba1e2;strokeColor=#519ed5;" parent="1" source="3" target="7" edge="1">
          <mxGeometry relative="1" as="geometry">
            <Array as="points" />
          </mxGeometry>
        </mxCell>
        <mxCell id="20" value="" style="curved=1;startArrow=none;;exitX=0.21367308812111796;exitY=1;entryX=0.4927455357142857;entryY=0;rounded=0;labelBackgroundColor=none;fontColor=default;fillColor=#1ba1e2;strokeColor=#519ed5;" parent="1" source="7" target="8" edge="1">
          <mxGeometry relative="1" as="geometry">
            <Array as="points">
              <mxPoint x="307" y="215" />
            </Array>
          </mxGeometry>
        </mxCell>
        <mxCell id="21" value="" style="curved=1;startArrow=none;;exitX=0.49844316123188404;exitY=1;entryX=0.4958683894230769;entryY=0;rounded=0;labelBackgroundColor=none;fontColor=default;fillColor=#1ba1e2;strokeColor=#519ed5;" parent="1" source="7" target="9" edge="1">
          <mxGeometry relative="1" as="geometry">
            <Array as="points" />
          </mxGeometry>
        </mxCell>
        <mxCell id="22" value="" style="curved=1;startArrow=none;;exitX=0.8692915911835748;exitY=1;entryX=0.4972540222772277;entryY=0;rounded=0;labelBackgroundColor=none;fontColor=default;fillColor=#1ba1e2;strokeColor=#519ed5;" parent="1" source="7" target="10" edge="1">
          <mxGeometry relative="1" as="geometry">
            <Array as="points">
              <mxPoint x="530" y="215" />
            </Array>
          </mxGeometry>
        </mxCell>
        <mxCell id="23" value="" style="curved=1;startArrow=none;;exitX=0.9669989224137931;exitY=0.5574302922501322;entryX=0.4996656813063063;entryY=0;rounded=0;labelBackgroundColor=none;fontColor=default;fillColor=#1ba1e2;strokeColor=#519ed5;" parent="1" source="3" target="11" edge="1">
          <mxGeometry relative="1" as="geometry">
            <Array as="points">
              <mxPoint x="710" y="131" />
            </Array>
          </mxGeometry>
        </mxCell>
        <mxCell id="24" value="" style="curved=1;startArrow=none;;exitX=0.27662358228764466;exitY=1;entryX=0.48149671052631576;entryY=0;rounded=0;labelBackgroundColor=none;fontColor=default;fillColor=#1ba1e2;strokeColor=#519ed5;" parent="1" source="11" target="12" edge="1">
          <mxGeometry relative="1" as="geometry">
            <Array as="points">
              <mxPoint x="649" y="215" />
            </Array>
          </mxGeometry>
        </mxCell>
        <mxCell id="25" value="" style="curved=1;startArrow=none;;exitX=0.722707780324968;exitY=1;entryX=0.5012047313084113;entryY=0;rounded=0;labelBackgroundColor=none;fontColor=default;fillColor=#1ba1e2;strokeColor=#519ed5;" parent="1" source="11" target="13" edge="1">
          <mxGeometry relative="1" as="geometry">
            <Array as="points">
              <mxPoint x="772" y="215" />
            </Array>
          </mxGeometry>
        </mxCell>
        <mxCell id="26" value="" style="curved=1;startArrow=none;;exitX=0.48149671052631576;exitY=1;entryX=0.03306361607142857;entryY=0.2384168343072466;rounded=0;labelBackgroundColor=none;fontColor=default;fillColor=#1ba1e2;strokeColor=#519ed5;" parent="1" source="12" target="14" edge="1">
          <mxGeometry relative="1" as="geometry">
            <Array as="points">
              <mxPoint x="649" y="299" />
            </Array>
          </mxGeometry>
        </mxCell>
        <mxCell id="27" value="" style="curved=1;startArrow=none;;exitX=0.5012047313084113;exitY=1;entryX=1.0330636160714286;entryY=0.2384168343072466;rounded=0;labelBackgroundColor=none;fontColor=default;fillColor=#1ba1e2;strokeColor=#519ed5;" parent="1" source="13" target="14" edge="1">
          <mxGeometry relative="1" as="geometry">
            <Array as="points">
              <mxPoint x="772" y="299" />
            </Array>
          </mxGeometry>
        </mxCell>
      </root>
    </mxGraphModel>
  </diagram>
</mxfile>
